<svg xmlns="http://www.w3.org/2000/svg" xmlns:svg="http://www.w3.org/2000/svg" id="svg7709" width="57.12" height="57.12" version="1.1" viewBox="0 0 15.113 15.113"><metadata id="metadata7706"/><g id="layer1" transform="translate(-98.276833,-141.27683)"><path d="m 98.806,148.83333 c 0,-3.88055 3.14678,-7.02733 7.02733,-7.02733 3.88056,0 7.02734,3.14678 7.02734,7.02733 0,3.88056 -3.14678,7.02734 -7.02734,7.02734 -3.88055,0 -7.02733,-3.14678 -7.02733,-7.02734 z" style="fill:none;stroke:#fff;stroke-width:1.05833328;stroke-linecap:butt;stroke-linejoin:miter;stroke-miterlimit:10;stroke-dasharray:none;stroke-opacity:1" id="path4913"/><path d="m 108.23222,147.28111 c 0,1.2947 -1.04775,2.34245 -2.34244,2.34245 -1.29117,0 -2.33892,-1.04775 -2.33892,-2.34245 0,-1.29117 1.04775,-2.33892 2.33892,-2.33892 1.29469,0 2.34244,1.04775 2.34244,2.33892 z" style="fill:#fff;fill-opacity:1;fill-rule:evenodd;stroke:none;stroke-width:.35277775" id="path4915"/><path d="m 110.51117,153.92392 0.0847,-1.66864 c 0,-0.35278 -0.17639,-0.70203 -0.46919,-0.93839 -0.64206,-0.52564 -1.4605,-0.87842 -2.27895,-1.11125 -0.58561,-0.17639 -1.22766,-0.29281 -1.92969,-0.29281 -0.64206,0 -1.28764,0.11642 -1.92969,0.29281 -0.81845,0.23283 -1.63689,0.64558 -2.27895,1.11125 -0.2928,0.23636 -0.46919,0.58561 -0.46919,0.93839 v 1.73214 c 1.46755,0.40569 0.98777,1.64747 4.70605,1.54869 4.36034,-0.25753 2.94217,-1.18533 4.56495,-1.61219 z" style="fill:#fff;fill-opacity:1;fill-rule:evenodd;stroke:none;stroke-width:.35277775" id="path4917"/></g></svg>